<svg width="96" height="108" viewBox="0 0 96 108" fill="none" xmlns="http://www.w3.org/2000/svg">
<path fill-rule="evenodd" clip-rule="evenodd" d="M51 12C51 7.55831 53.4132 3.68024 57 1.60539C55.235 0.584366 53.1857 0 51 0C44.3726 0 39 5.37258 39 12C39 12.2813 39.0097 12.5604 39.0287 12.8369C16.8067 17.0382 0 36.5564 0 60C0 86.5097 21.4903 108 48 108C74.5097 108 96 86.5097 96 60C96 34.498 76.1124 13.641 51.0003 12.0922C51.0001 12.0615 51 12.0308 51 12Z" fill="#FFF2AF"/>
<path fill-rule="evenodd" clip-rule="evenodd" d="M48 69C45.0797 69 42.476 70.8248 40.815 73.2267C37.5668 77.9235 32.1427 81.0005 26 81.0005C23.9276 81.0005 21.937 80.6503 20.0842 80.0058C18.2483 79.3672 16 80.0567 16 82.0005V82.0005C16 90.837 30.3269 98.0005 48 98.0005C65.6731 98.0005 80 90.837 80 82.0005V82.0005C80 80.0567 77.7517 79.3672 75.9158 80.0058C74.063 80.6503 72.0724 81.0005 70 81.0005C63.8573 81.0005 58.4332 77.9235 55.185 73.2267C53.5239 70.8248 50.9203 69 48 69V69V69Z" fill="#E07716"/>
<ellipse cx="30" cy="64" rx="6" ry="8" fill="#352F19"/>
<ellipse cx="66" cy="64" rx="6" ry="8" fill="#352F19"/>
</svg>
