<svg width="24" height="20" viewBox="0 0 24 20" fill="none" xmlns="http://www.w3.org/2000/svg">
<path fill-rule="evenodd" clip-rule="evenodd" d="M21.9999 10C21.9999 14.4183 18.4182 18 13.9999 18C11.6306 18 9.50184 16.97 8.03699 15.3333L5.53935 15.3333C7.31078 18.1376 10.4379 20 13.9999 20C19.5228 20 23.9999 15.5228 23.9999 10C23.9999 4.47715 19.5228 0 13.9999 0C10.1625 0 6.82998 2.16147 5.15332 5.33334L7.50132 5.33334C8.95356 3.31458 11.3232 2 13.9999 2C18.4182 2 21.9999 5.58172 21.9999 10Z" fill="#666666"/>
<line x1="5" y1="10" x2="15" y2="10" stroke="#666666" stroke-width="2" stroke-linecap="round"/>
<path d="M1.1236 9.18912C0.570536 9.58825 0.570536 10.4117 1.12359 10.8109L4.41479 13.1861C5.07616 13.6634 6 13.1908 6 12.3752L6 7.62478C6 6.80917 5.07616 6.3366 4.41479 6.8139L1.1236 9.18912Z" fill="#666666"/>
</svg>
